<?xml version="1.0" encoding="utf-8"?>
<!-- Generator: Adobe Illustrator 26.2.1, SVG Export Plug-In . SVG Version: 6.00 Build 0)  -->
<svg version="1.1" id="Layer_1" xmlns="http://www.w3.org/2000/svg" xmlns:xlink="http://www.w3.org/1999/xlink" x="0px" y="0px"
	 viewBox="0 0 223.4 248.8" style="enable-background:new 0 0 223.4 248.8;" xml:space="preserve">
<style type="text/css">
	.st0{fill:#5932A5;}
	.st1{fill:#471E87;}
	.st2{fill:#7752D1;}
	.st3{fill:#5D38A5;}
	.st4{fill:#4A2289;}
	.st5{opacity:0.39;fill:#FFFFFF;enable-background:new    ;}
	.st6{fill:#FFFEF5;}
	.st7{fill:#77A6E8;}
	.st8{fill:#8CB1F4;}
	.st9{opacity:0.54;fill:#3FACEF;enable-background:new    ;}
	.st10{fill:#AEC7FF;}
	.st11{opacity:0.53;fill:#5C27A0;enable-background:new    ;}
	.st12{fill:#FFFFFF;}
</style>
<g>
	<g id="a">
	</g>
	<g id="b">
		<g id="c">
			<g>
				<path class="st0" d="M122.3,212.4c-11.5,2.9-21.4,2.4-28.9,0.4c-7.7-2.1-12.9-5.9-14.6-9.5c-3.2-7.1,3.9-14.3,3.9-14.3h52
					C134.6,189,147.9,206,122.3,212.4L122.3,212.4z"/>
				<path class="st1" d="M122.3,212.4c-11.5,2.9-21.4,2.4-28.9,0.4c4.9,0,11-0.9,15.9-4.3c10.4-7.1-7.1-14.3-7.1-14.3L130,189h4.6
					C134.6,189,147.9,206,122.3,212.4L122.3,212.4z"/>
				<path class="st0" d="M87.9,210.5c0,0-9.3-5.4-18-1.9s-11.7,19-11.7,19s5.8,6.3-1,9.7c-6.8,3.4-21.9,3.9-23.4-1.5
					c-0.3-1.2,0.4-2.2,1.8-3.1c3.6-2.3,11.5-3.8,15.6-4.4c1.5-0.2,2.5-0.3,2.5-0.3l0-0.2c0.2-1.5,1.7-11.7,10.2-19.8
					c2.8-2.7,6-3.8,9.1-4.1c7-0.7,13.3,3.1,13.3,3.1L87.9,210.5L87.9,210.5z"/>
				<path class="st1" d="M129.7,207.1c0,0,13.2-7.8,22.4,1c9.3,8.8,10.2,20,10.2,20s21.4,2.4,20,7.8c-1.5,5.4-16.6,4.9-23.4,1.5
					c-6.8-3.4-1-9.7-1-9.7s-2.9-15.6-11.7-19c-8.8-3.4-18,1.9-18,1.9L129.7,207.1L129.7,207.1z"/>
				<path class="st1" d="M104.9,212.4c0,0,0.5,21.9,0.5,23.9s-9.7,5.4-8.3,8.8c1.5,3.4,18,3.9,21.4,1.5c3.4-2.4-7.3-8.3-7.3-8.3
					s-3.4-18.3-3.9-23.2C106.9,210.2,104.9,212.4,104.9,212.4L104.9,212.4z"/>
				<path class="st2" d="M54.4,233.2c-0.2,0.2-8.2,5.8-15.6,3.9c-3-0.8-3.6-2.6-3.2-4.4c3.6-2.3,11.5-3.8,15.6-4.4
					c6.1,2-2.3,6.5-2.3,6.5L54.4,233.2z"/>
				<path class="st3" d="M73.1,203.9c-2.8,0.9-7.5,2.8-10.8,6.9C57,217,53.8,228,53.8,228l0-0.2c0.2-1.5,1.7-11.7,10.2-19.8
					C66.8,205.4,70,204.2,73.1,203.9L73.1,203.9z"/>
				<path class="st0" d="M105.1,240c0,0-8.1,3.2-4.5,5.2c3.6,1.9,15.9,1.9,15.3-0.6c-0.6-2.6-7.1-4.2-7.1-4.2s4.9,2.6,1.6,3.2
					C107,244.2,101.8,240.7,105.1,240z"/>
				<path class="st4" d="M105.4,236.3l-0.3-21.3C105.1,215,107.4,230.6,105.4,236.3L105.4,236.3z"/>
				<path class="st5" d="M189.8,113.7c0,6.4-0.7,12.6-2.1,18.6c-1,4.6-2.4,9.1-4.2,13.3c-1.7,4.3-3.8,8.3-6.2,12.2
					c-14.9,24.2-41.5,40.3-72,40.3c-13.7,0-26.6-3.2-38-9c-13.4-6.8-24.8-17-32.9-29.5c-1.7-2.6-3.3-5.4-4.7-8.2
					c-5.7-11.4-8.9-24.2-8.9-37.7c0-14.4,3.6-27.9,9.9-39.8c10.6-19.9,29-35,51.1-41.4c7.4-2.1,15.3-3.3,23.4-3.3
					c21,0,40.3,7.7,55.1,20.4c10.9,9.4,19.3,21.4,24.3,35.1C188,93.9,189.8,103.6,189.8,113.7L189.8,113.7z"/>
				<path class="st6" d="M169.7,33.1c0-5.1-4.1-9.3-9.3-9.3c5.1,0,9.3-4.1,9.3-9.3c0,5.1,4.1,9.3,9.3,9.3
					C173.9,23.8,169.7,28,169.7,33.1z"/>
				<path class="st6" d="M195.7,68.8c0-8.6-7-15.6-15.6-15.6c8.6,0,15.6-7,15.6-15.6c0,8.6,7,15.6,15.6,15.6
					C202.7,53.1,195.7,60.1,195.7,68.8z"/>
				<path class="st7" d="M181.4,114.2c0,8.3-1.3,16.3-3.8,23.7c-2.3,7-5.6,13.6-9.7,19.5l-22.3-0.9l3.2-38.3c0,0-3.4-4.1-5-9.5
					c-1.1-3.7-1.3-7.9,1.1-11.9c5.8-9.6,17.2-6.6,17.5-6.5c-0.3-0.3-14.3-13.8-12.3-29.2c0.3-2.7,1.3-4.8,2.6-6.5
					C170.3,68.6,181.4,90.1,181.4,114.2L181.4,114.2z"/>
				<path class="st8" d="M121,116.3l-24,32.5l-54.3,9.4c-3.9-5.5-7-11.5-9.4-17.9c-3-8.1-4.6-16.9-4.6-26.1
					c0-15.1,4.4-29.1,11.9-40.9c1.6,0.1,3.3,0.4,5.1,0.8c16.2,3.9,20.1,29.2,20.1,29.2s3.9-6.5,9.1-4.5c5.2,1.9,5.2,10.4,5.2,10.4
					s9.7-11,22.7-8.4c5.7,1.1,9.8,4.2,12.8,7.4C119.3,112.2,121,116.3,121,116.3L121,116.3z"/>
				<path class="st9" d="M181.4,114.2c0,8.3-1.3,16.3-3.8,23.7c-2.3,7-5.6,13.6-9.7,19.5c-13.8,20-36.8,33.1-62.9,33.1
					s-48.6-12.8-62.4-32.4c-3.9-5.5-7-11.5-9.4-17.9c-3-8.1-4.6-16.9-4.6-26.1c0-15.1,4.4-29.1,11.9-40.9
					C54.1,52,78,37.8,105.1,37.8c18.1,0,34.7,6.3,47.7,16.8C170.3,68.6,181.4,90.1,181.4,114.2L181.4,114.2z"/>
				<path class="st10" d="M177.7,137.9c-2.3,7-5.6,13.6-9.7,19.5c-13.8,20-36.8,33.1-62.9,33.1s-48.6-12.8-62.4-32.4
					c-3.9-5.5-7-11.5-9.4-17.9c2.3-4.7,6-9.2,11.7-12.3c18.2-9.7,32.5,4.5,32.5,4.5s0.6-7.1,7.8-7.8s9.1,1.9,9.1,1.9
					s7.6-12.9,21.2-18.6c7.1-3,15.9-4,26.2-0.2c0.7,0.3,1.5,0.6,2.1,0.9c26.6,11.5,11.2,38.2,10.9,38.8c0.3-0.3,10.6-11.7,22.1-9.7
					C177.1,137.8,177.4,137.8,177.7,137.9L177.7,137.9z"/>
				<path class="st11" d="M55.4,74.1c0,0,3.9-13,11-18.2c7.1-5.2,39.6-7.8,57.2-4.5c17.5,3.2,44.2,48.7,44.8,55.2
					c0.6,6.5,5.8,53.9-49.4,61.7s-68.8-35.7-70.1-48.7c-1.3-13,21.4-35.1,26.6-37c5.2-1.9,48.7,0.6,53.3,2.6
					c4.5,1.9,18.8,33.1,17.5,39c-1.3,5.8-24.7,26-40.3,25.3c-15.6-0.6-38.3-29.2-38.3-35.1c0-5.8,14.9-19.5,22.1-20.1
					c7.1-0.6,25.3,9.1,26,14.3c0.6,5.2-7.8,20.8-9.1,18.8c-1.3-1.9-1.3-18.2-1.3-18.2s-11-8.4-13.6-6.5c-2.6,1.9-10.4,10.4-9.1,13.6
					c1.3,3.2,21.4,22.7,27.3,22.1c5.8-0.6,21.4-16.9,22.1-19.5c0.7-2.6-12.3-24-17.5-26.6c-5.2-2.6-29.2-1.9-35.7,1.3
					c-6.5,3.2-21.4,22.1-19.5,29.2c1.9,7.1,28.6,33.8,39.6,36.4c11,2.6,46.1-9.7,51.3-14.3c5.2-4.5,13.6-31.8,8.4-41.6
					c-5.2-9.7-31.8-40.9-41.6-42.9c-9.7-1.9-34.4-2.6-38.3-1.3C74.9,60.5,55.4,74.1,55.4,74.1L55.4,74.1z"/>
				<path class="st12" d="M34.9,100.1c-1.9-10.4-10.4-9.7-11.7,11.7c-1.3,21.4,17.5,55.2,24,55.9c6.5,0.6,0.7-12.8-0.6-18.2
					C42.1,131.2,36.9,110.5,34.9,100.1L34.9,100.1z"/>
				<path class="st9" d="M187.8,132.3c-1,4.6-2.4,9.1-4.2,13.3c-1.7,4.3-3.8,8.3-6.2,12.2c-14.9,24.2-41.5,40.3-72,40.3
					c-13.7,0-26.6-3.2-38-9c-8.5-15.6-20.2-54.3,17.8-79.3c46.2-30.4,85.7,24.7,85.7,24.7s-1.3-15.6-10.4-29.9
					c-9.1-14.3-31.8-19.5-31.8-19.5s31.8-3.9,47.4,19.5C182.3,113.7,186.1,121.8,187.8,132.3L187.8,132.3z"/>
				<path class="st12" d="M71,182.7c0,0-7.4-10.5-15.1-12c-7.7-1.4-1,9.7,4.1,11.5c5,1.8,10.5,6.3,13.2,5.3
					C75.9,186.5,71,182.7,71,182.7L71,182.7z"/>
			</g>
		</g>
	</g>
</g>
</svg>
